# xmcd
#
# Track frame offsets: 
#        150
#        25862
#        44994
#        68280
#        94559
#        112370
#        141226
#        170053
#
# Disc length: 3199 seconds
#
# Revision: 0
# Processed by: cddbd v1.5.2PL0 Copyright (c) Steve Scherf et al.
# Submitted via: ExactAudioCopy v0.95b3
#
DISCID=720c7d08
DTITLE=Chicago  - Nassau Coliseum Uniondale NY FM 1977 - Disc 1
DYEAR=1900
DGENRE=
TTITLE0=Mississippi Delta City Blues
TTITLE1=Does Anybody Really Know What Time It Is?
TTITLE2=Call On Me
TTITLE3=You Are On My Mind
TTITLE4=Once Or Twice
TTITLE5=Just You 'N Me
TTITLE6=Beginnings
TTITLE7=The Ballet
EXTD=
EXTT0=
EXTT1=
EXTT2=
EXTT3=
EXTT4=
EXTT5=
EXTT6=
EXTT7=
PLAYORDER=
